<svg xmlns="http://www.w3.org/2000/svg" width="16.701" height="20.037" viewBox="0 0 16.701 20.037">
    <title>search</title>
    <path class="st0" data-name="Path 92" d="M18.219,18.464l-5.6-7.587a6.691,6.691,0,0,0,.413-8.409A6.331,6.331,0,0,0,8.814-.085,6.25,6.25,0,0,0,4.069,1.175,6.562,6.562,0,0,0,1.582,5.507a6.658,6.658,0,0,0,1.227,4.868,6.323,6.323,0,0,0,5.127,2.616,6.183,6.183,0,0,0,2.848-.7l5.6,7.6ZM11.986,7.007a4.207,4.207,0,0,1-1.594,2.776,4.042,4.042,0,0,1-5.748-.829,4.268,4.268,0,0,1-.786-3.119A4.2,4.2,0,0,1,5.453,3.06a4,4,0,0,1,3.04-.807A4.053,4.053,0,0,1,11.2,3.888,4.267,4.267,0,0,1,11.986,7.007Z" transform="translate(-1.518 0.15)" fill="#0f2144"/>
</svg>
